<svg width="52" height="56" viewBox="0 0 52 56" fill="none" xmlns="http://www.w3.org/2000/svg"><g clip-path="url(#clip0_208_31244)"><path d="M20.6571 1.30809L4.90347 10.447C3.41477 11.3081 2.17907 12.5454 1.32054 14.0348C0.462006 15.5242 0.0108814 17.2131 0.0124903 18.9319V37.1172C0.00762445 38.8391 0.457208 40.5319 1.3159 42.0248C2.1746 43.5177 3.41204 44.758 4.90347 45.6206L20.6695 54.7163C22.1566 55.5772 23.8449 56.0305 25.5635 56.0305C27.2822 56.0305 28.9704 55.5772 30.4576 54.7163L46.2051 45.6206C47.698 44.7645 48.9363 43.5272 49.793 42.0354C50.6511 40.5471 51.1025 38.8595 51.1022 37.1419V18.8764C51.1025 17.1587 50.6511 15.4712 49.793 13.9829C48.9363 12.4911 47.698 11.2538 46.2051 10.3977L30.4514 1.30809C28.9619 0.450923 27.2732 -0.000244141 25.5543 -0.000244141C23.8354 -0.000244141 22.1466 0.450923 20.6571 1.30809Z" fill="#011F2C"/><path d="M39.9986 27.6762C39.1546 28.0392 38.2471 28.232 37.3283 28.2437C36.4095 28.2553 35.4974 28.0855 34.6445 27.7441V32.44C34.6473 32.8652 34.5588 33.2861 34.3851 33.6742C34.2206 34.0433 33.9881 34.3783 33.6996 34.6615C33.4142 34.9514 33.0742 35.1821 32.6992 35.3403C31.9069 35.6601 31.0213 35.6601 30.229 35.3403C29.854 35.1821 29.514 34.9514 29.2286 34.6615C28.944 34.3764 28.7138 34.0418 28.5492 33.6742C28.3808 33.2846 28.2946 32.8644 28.2961 32.44V18.0127H22.8987V32.44C22.9089 32.8634 22.8289 33.2841 22.664 33.6742C22.5028 34.0521 22.2676 34.3941 21.9724 34.68C21.6793 34.9678 21.3333 35.1962 20.9534 35.3526C20.371 35.6075 19.7239 35.6765 19.1008 35.5501C18.487 35.4319 17.9243 35.1282 17.489 34.68C17.2003 34.3959 16.9696 34.0585 16.8097 33.6865C16.6481 33.2952 16.5662 32.8756 16.5688 32.4523V18.0127H11.1653V32.44C11.1703 33.5588 11.3948 34.6657 11.8261 35.6982C12.2528 36.7322 12.8827 37.6702 13.6787 38.4566C14.4632 39.2377 15.3868 39.8656 16.4021 40.3078C17.4555 40.7584 18.5911 40.9853 19.7368 40.9742C20.791 40.9808 21.8375 40.7947 22.8246 40.425C23.7935 40.0504 24.6837 39.4979 25.4492 38.7959L25.5912 38.6663L25.7456 38.7959C26.961 39.873 28.4555 40.586 30.0578 40.8534C31.6601 41.1208 33.3053 40.9317 34.805 40.3078C35.8211 39.8671 36.745 39.2391 37.5284 38.4566C38.3202 37.681 38.9499 36.7559 39.381 35.7352C39.8282 34.6882 40.0532 33.5598 40.0418 32.4215V27.6577L39.9986 27.6762Z" fill="white"/><path d="M41.2707 21.0733C41.2816 21.6032 41.1784 22.1293 40.9681 22.616C40.5572 23.5514 39.8005 24.292 38.8561 24.6832C38.3671 24.8876 37.8423 24.9928 37.3123 24.9928C36.7822 24.9928 36.2574 24.8876 35.7684 24.6832C35.0586 24.3899 34.4519 23.8926 34.0254 23.2543C33.5988 22.616 33.3715 21.8655 33.3723 21.098C33.3735 20.3286 33.6014 19.5766 34.0275 18.9357C34.4536 18.2948 35.059 17.7935 35.7684 17.4942C36.2559 17.2836 36.7812 17.1744 37.3123 17.1733C37.8414 17.1737 38.3649 17.2829 38.85 17.4942C39.309 17.6945 39.7276 17.9768 40.0851 18.3273C40.4433 18.6822 40.7323 19.1008 40.9373 19.5614C41.1553 20.0358 41.269 20.5513 41.2707 21.0733Z" fill="#74E141"/></g><defs><clipPath id="clip0_208_31244"><rect width="52" height="56" fill="white"/></clipPath></defs></svg>